{"title":"Let's Be Cops 2014 720p HDCAM ENGISH x264 Pimp4003","uid":10838583,"size":1659606638,"categoryP":"video","categoryS":"movies","magnet":"?xt=urn:btih:ff5e63d7ec36a45dc7ee17f8d22453b2b4a89c39&amp;dn=Let%27s+Be+Cops+2014+720p+HDCAM+ENGISH+x264+Pimp4003&amp;tr=udp%3A%2F%2Ftracker.openbittorrent.com%3A80&amp;tr=udp%3A%2F%2Fopen.demonii.com%3A1337&amp;tr=udp%3A%2F%2Ftracker.coppersurfer.tk%3A6969&amp;tr=udp%3A%2F%2Fexodus.desync.com%3A6969","seeders":26,"leechers":1,"uploader":"shawnmurthy","files":-1,"time":1408722356,"description":"[color=red][b]NOT BAD FOR THE FIRST CAM.....YES ITS IN ENGLISH AND YES HAS SPANISH SUBS I COULD HAVE REMOVED THEM BUT YOU LOOSE SOME OF THE MOVIE SO I KEPT IT.....VIDEO WAS A BIT DARK BRIGHTENED IT AND FIXED THE CONTRAST REMOVED THE FLICKERING AS WELL....AUDIO WAS  BIT LOW FIXED THAT AND DID WHAT I COULD TO REMOVE THE ECHO.....ENJOY PIMP4003 OUT[b]\n[/color]\n\n[IMG]http://i.imgur.com/fW5GLTr.jpg[/IMG]\n\n[IMG]http://i.imgur.com/iZErw4i.jpg[/IMG]\n\n[color=blue][b]REQUESTS, SCREENSHOTS, VIDEO INFO, SAMPLE AND FOR EXCLUSIVE RELEASES VISIT BELOW LINK[/b][/color]\n\nLet's Be Cops 2014 720p HDCAM ENGISH x264 Pimp4003\n\nENJOY\n\nPIMP4003\n\nVideo\nID                                       : 2\nFormat                                   : AVC\nFormat/Info                              : Advanced Video Codec\nFormat profile                           : &lt;a class=&quot;__cf_email__&quot; href=&quot;/cdn-cgi/l/email-protection&quot; data-cfemail=&quot;db99baa8beb7b2b5be9b97e8f5eb&quot;&gt;[email&amp;#160;protected]&lt;/a&gt;&lt;script cf-hash='f9e31' type=&quot;text/javascript&quot;&gt;\n/* &lt;![CDATA[ */!function(){try{var t=&quot;currentScript&quot;in document?document.currentScript:function(){for(var t=document.getElementsByTagName(&quot;script&quot;),e=t.length;e--;)if(t[e].getAttribute(&quot;cf-hash&quot;))return t[e]}();if(t&amp;&amp;t.previousSibling){var e,r,n,i,c=t.previousSibling,a=c.getAttribute(&quot;data-cfemail&quot;);if(a){for(e=&quot;&quot;,r=parseInt(a.substr(0,2),16),n=2;a.length-n;n+=2)i=parseInt(a.substr(n,2),16)^r,e+=String.fromCharCode(i);e=document.createTextNode(e),c.parentNode.replaceChild(e,c)}}}catch(u){}}();/* ]]&gt; */&lt;/script&gt;\nFormat settings, CABAC                   : No\nFormat settings, ReFrames                : 1 frame\nFormat settings, GOP                     : M=1, N=25\nMuxing mode                              : Container profile=&lt;a class=&quot;__cf_email__&quot; href=&quot;/cdn-cgi/l/email-protection&quot; data-cfemail=&quot;07456674626b6e696247332936&quot;&gt;[email&amp;#160;protected]&lt;/a&gt;&lt;script cf-hash='f9e31' type=&quot;text/javascript&quot;&gt;\n/* &lt;![CDATA[ */!function(){try{var t=&quot;currentScript&quot;in document?document.currentScript:function(){for(var t=document.getElementsByTagName(&quot;script&quot;),e=t.length;e--;)if(t[e].getAttribute(&quot;cf-hash&quot;))return t[e]}();if(t&amp;&amp;t.previousSibling){var e,r,n,i,c=t.previousSibling,a=c.getAttribute(&quot;data-cfemail&quot;);if(a){for(e=&quot;&quot;,r=parseInt(a.substr(0,2),16),n=2;a.length-n;n+=2)i=parseInt(a.substr(n,2),16)^r,e+=String.fromCharCode(i);e=document.createTextNode(e),c.parentNode.replaceChild(e,c)}}}catch(u){}}();/* ]]&gt; */&lt;/script&gt;\nCodec ID                                 : avc1\nCodec ID/Info                            : Advanced Video Coding\nDuration                                 : 1h 40mn\nBit rate                                 : 2 072 Kbps\nWidth                                    : 1 280 pixels\nHeight                                   : 720 pixels\nDisplay aspect ratio                     : 16:9\nFrame rate mode                          : Constant\nFrame rate                               : 29.970 fps\nOriginal frame rate                      : 29.000 fps\nColor space                              : YUV\nChroma subsampling                       : 4:2:0\nBit depth                                : 8 bits\nScan type                                : Progressive\nBits/(Pixel*Frame)                       : 0.075\nStream size                              : 1.45 GiB (94%)\nWriting library                          : Ã„\nLanguage                                 : English\n\nAudio\nID                                       : 1\nFormat                                   : AAC\nFormat/Info                              : Advanced Audio Codec\nFormat profile                           : LC\nCodec ID                                 : 40\nDuration                                 : 1h 40mn\nBit rate mode                            : Constant\nBit rate                                 : 128 Kbps\nChannel(s)                               : 2 channels\nChannel positions                        : Front: L R\nSampling rate                            : 48.0 KHz\nCompression mode                         : Lossy\nStream size                              : 91.9 MiB (6%)\nLanguage                                 : English\n ","torrent":{"xt":"urn:btih:ff5e63d7ec36a45dc7ee17f8d22453b2b4a89c39","amp;dn":"Let%27s+Be+Cops+2014+720p+HDCAM+ENGISH+x264+Pimp4003","amp;tr":["udp%3A%2F%2Ftracker.openbittorrent.com%3A80","udp%3A%2F%2Fopen.demonii.com%3A1337","udp%3A%2F%2Ftracker.coppersurfer.tk%3A6969","udp%3A%2F%2Fexodus.desync.com%3A6969"],"infoHash":"ff5e63d7ec36a45dc7ee17f8d22453b2b4a89c39","infoHashBuffer":{"type":"Buffer","data":[255,94,99,215,236,54,164,93,199,238,23,248,210,36,83,178,180,168,156,57]},"announce":[],"urlList":[]}}